<?xml version="1.0" encoding="UTF-8" standalone="no"?>
<svg width="1200" height="700" viewBox="0 0 1200 700" xmlns="http://www.w3.org/2000/svg">
  <style>
    .ocean { fill: #001426; }
    .territory { 
      fill: #032c46; 
      stroke: #00ccff; 
      stroke-width: 1.5; 
      transition: fill 0.3s ease;
    }
    .territory:hover { 
      fill: #064e7a; 
      cursor: pointer; 
      stroke-width: 2;
    }
    .territory-connection {
      stroke: #00ccff;
      stroke-width: 1;
      stroke-dasharray: 3, 3;
      fill: none;
      opacity: 0.5;
    }
    .territory-label {
      fill: #00ccff;
      font-family: 'Arial', sans-serif;
      font-size: 12px;
      text-anchor: middle;
      pointer-events: none;
    }
    .continent-label {
      fill: #00eaff;
      font-family: 'Arial', sans-serif;
      font-size: 16px;
      font-weight: bold;
      text-anchor: middle;
      pointer-events: none;
    }
  </style>
  
  <!-- Ocean background -->
  <rect class="ocean" x="0" y="0" width="1200" height="700" />
  
  <!-- North America -->
  <g id="north-america">
    <path id="alaska" class="territory" d="M 50,70 L 30,90 L 40,110 L 70,120 L 90,100 L 80,80 Z" data-name="Alaska" />
    <path id="canada" class="territory" d="M 100,80 L 90,100 L 110,130 L 150,150 L 200,140 L 220,120 L 180,100 L 160,70 Z" data-name="Canada" />
    <path id="greenland" class="territory" d="M 280,50 L 250,70 L 270,100 L 310,90 L 300,60 Z" data-name="Greenland" />
    <path id="usa" class="territory" d="M 110,130 L 100,160 L 130,180 L 180,190 L 210,170 L 220,120 L 200,140 L 150,150 Z" data-name="United States" />
    <path id="mexico" class="territory" d="M 100,160 L 90,190 L 120,220 L 160,210 L 180,190 L 130,180 Z" data-name="Mexico" />
    
    <text x="180" y="70" class="continent-label">NORTH AMERICA</text>
    <text x="60" y="90" class="territory-label">Alaska</text>
    <text x="150" y="110" class="territory-label">Canada</text>
    <text x="280" y="80" class="territory-label">Greenland</text>
    <text x="160" y="170" class="territory-label">USA</text>
    <text x="130" y="200" class="territory-label">Mexico</text>
    
    <!-- Internal connections -->
    <path class="territory-connection" d="M 80,100 L 100,100" /> <!-- Alaska to Canada -->
    <path class="territory-connection" d="M 180,100 L 260,80" /> <!-- Canada to Greenland -->
    <path class="territory-connection" d="M 180,140 L 180,160" /> <!-- Canada to USA -->
    <path class="territory-connection" d="M 150,180 L 140,200" /> <!-- USA to Mexico -->
  </g>
  
  <!-- South America -->
  <g id="south-america">
    <path id="colombia" class="territory" d="M 160,240 L 140,270 L 160,290 L 190,280 L 200,250 L 190,230 Z" data-name="Colombia" />
    <path id="brazil" class="territory" d="M 190,280 L 170,320 L 200,360 L 240,370 L 260,340 L 240,290 L 210,270 Z" data-name="Brazil" />
    <path id="argentina" class="territory" d="M 170,320 L 160,360 L 180,400 L 210,410 L 230,380 L 200,360 Z" data-name="Argentina" />
    <path id="chile" class="territory" d="M 160,360 L 150,410 L 160,440 L 180,420 L 180,400 Z" data-name="Chile" />
    
    <text x="200" y="320" class="continent-label">SOUTH AMERICA</text>
    <text x="180" y="260" class="territory-label">Colombia</text>
    <text x="220" y="330" class="territory-label">Brazil</text>
    <text x="190" y="390" class="territory-label">Argentina</text>
    <text x="150" y="410" class="territory-label">Chile</text>
    
    <!-- Internal connections -->
    <path class="territory-connection" d="M 120,220 L 160,240" /> <!-- Mexico to Colombia -->
    <path class="territory-connection" d="M 180,280 L 220,290" /> <!-- Colombia to Brazil -->
    <path class="territory-connection" d="M 200,360 L 190,380" /> <!-- Brazil to Argentina -->
    <path class="territory-connection" d="M 170,380 L 160,390" /> <!-- Argentina to Chile -->
  </g>
  
  <!-- Western Europe -->
  <g id="western-europe">
    <path id="uk" class="territory" d="M 400,120 L 380,140 L 390,160 L 410,150 L 420,130 Z" data-name="United Kingdom" />
    <path id="france" class="territory" d="M 390,160 L 380,180 L 400,200 L 430,190 L 440,170 L 410,150 Z" data-name="France" />
    <path id="germany" class="territory" d="M 430,130 L 410,150 L 440,170 L 460,150 L 450,130 Z" data-name="Germany" />
    <path id="spain" class="territory" d="M 380,180 L 360,200 L 370,220 L 400,225 L 410,210 L 400,200 Z" data-name="Spain" />
    <path id="italy" class="territory" d="M 430,190 L 420,210 L 440,230 L 460,220 L 450,200 Z" data-name="Italy" />
    
    <text x="410" y="100" class="continent-label">WESTERN EUROPE</text>
    <text x="405" y="140" class="territory-label">UK</text>
    <text x="410" y="180" class="territory-label">France</text>
    <text x="440" y="150" class="territory-label">Germany</text>
    <text x="380" y="210" class="territory-label">Spain</text>
    <text x="440" y="215" class="territory-label">Italy</text>
    
    <!-- Internal connections -->
    <path class="territory-connection" d="M 400,140 L 430,140" /> <!-- UK to Germany -->
    <path class="territory-connection" d="M 400,160 L 420,160" /> <!-- UK to France -->
    <path class="territory-connection" d="M 440,170 L 430,180" /> <!-- Germany to France -->
    <path class="territory-connection" d="M 390,190 L 390,200" /> <!-- France to Spain -->
    <path class="territory-connection" d="M 430,190 L 440,200" /> <!-- France to Italy -->
  </g>
  
  <!-- Eastern Europe -->
  <g id="eastern-europe">
    <path id="poland" class="territory" d="M 460,150 L 450,170 L 470,180 L 490,170 L 500,150 L 480,140 Z" data-name="Poland" />
    <path id="ukraine" class="territory" d="M 490,170 L 480,190 L 500,210 L 530,200 L 540,180 L 520,160 L 500,150 Z" data-name="Ukraine" />
    <path id="russia" class="territory" d="M 500,150 L 520,160 L 550,130 L 600,120 L 650,100 L 620,80 L 580,90 L 540,110 L 510,120 L 480,140 Z" data-name="Russia" />
    
    <text x="540" y="130" class="continent-label">EASTERN EUROPE</text>
    <text x="470" y="160" class="territory-label">Poland</text>
    <text x="510" y="190" class="territory-label">Ukraine</text>
    <text x="580" y="110" class="territory-label">Russia</text>
    
    <!-- Internal connections -->
    <path class="territory-connection" d="M 460,150 L 480,140" /> <!-- Germany to Poland -->
    <path class="territory-connection" d="M 480,160 L 490,170" /> <!-- Poland to Ukraine -->
    <path class="territory-connection" d="M 490,150 L 500,150" /> <!-- Poland to Russia -->
    <path class="territory-connection" d="M 520,170 L 530,180" /> <!-- Ukraine to Russia -->
  </g>
  
  <!-- Africa -->
  <g id="africa">
    <path id="egypt" class="territory" d="M 450,230 L 430,250 L 450,270 L 480,260 L 490,240 Z" data-name="Egypt" />
    <path id="nigeria" class="territory" d="M 400,280 L 380,300 L 400,320 L 430,310 L 440,290 Z" data-name="Nigeria" />
    <path id="south-africa" class="territory" d="M 440,360 L 420,380 L 440,400 L 470,390 L 480,370 L 460,350 Z" data-name="South Africa" />
    
    <text x="440" y="320" class="continent-label">AFRICA</text>
    <text x="460" y="250" class="territory-label">Egypt</text>
    <text x="415" y="300" class="territory-label">Nigeria</text>
    <text x="450" y="380" class="territory-label">South Africa</text>
    
    <!-- Internal connections -->
    <path class="territory-connection" d="M 370,220 L 430,230" /> <!-- Spain to Egypt -->
    <path class="territory-connection" d="M 450,270 L 420,280" /> <!-- Egypt to Nigeria -->
    <path class="territory-connection" d="M 420,310 L 440,360" /> <!-- Nigeria to South Africa -->
    <path class="territory-connection" d="M 480,240 L 500,210" /> <!-- Egypt to Ukraine -->
  </g>
  
  <!-- Middle East -->
  <g id="middle-east">
    <path id="saudi-arabia" class="territory" d="M 500,240 L 480,260 L 500,280 L 530,270 L 540,250 L 520,230 Z" data-name="Saudi Arabia" />
    <path id="iran" class="territory" d="M 530,220 L 520,240 L 540,250 L 560,240 L 570,220 L 550,210 Z" data-name="Iran" />
    
    <text x="530" y="250" class="continent-label">MIDDLE EAST</text>
    <text x="510" y="265" class="territory-label">Saudi Arabia</text>
    <text x="545" y="230" class="territory-label">Iran</text>
    
    <!-- Internal connections -->
    <path class="territory-connection" d="M 490,240 L 500,240" /> <!-- Egypt to Saudi Arabia -->
    <path class="territory-connection" d="M 530,200 L 530,220" /> <!-- Ukraine to Iran -->
    <path class="territory-connection" d="M 530,250 L 540,250" /> <!-- Saudi Arabia to Iran -->
  </g>
  
  <!-- Asia -->
  <g id="asia">
    <path id="china" class="territory" d="M 650,100 L 620,140 L 640,180 L 680,190 L 710,170 L 730,140 L 710,110 L 680,90 Z" data-name="China" />
    <path id="india" class="territory" d="M 600,180 L 580,210 L 600,230 L 630,240 L 650,220 L 640,180 L 620,170 Z" data-name="India" />
    <path id="japan" class="territory" d="M 760,130 L 740,150 L 750,170 L 770,160 L 780,140 Z" data-name="Japan" />
    <path id="south-korea" class="territory" d="M 730,170 L 720,190 L 740,200 L 750,180 Z" data-name="South Korea" />
    
    <text x="670" y="150" class="continent-label">ASIA</text>
    <text x="670" y="150" class="territory-label">China</text>
    <text x="620" y="210" class="territory-label">India</text>
    <text x="760" y="150" class="territory-label">Japan</text>
    <text x="735" y="185" class="territory-label">S. Korea</text>
    
    <!-- Internal connections -->
    <path class="territory-connection" d="M 630,120 L 650,120" /> <!-- Russia to China -->
    <path class="territory-connection" d="M 570,220 L 590,210" /> <!-- Iran to India -->
    <path class="territory-connection" d="M 630,180 L 630,200" /> <!-- China to India -->
    <path class="territory-connection" d="M 730,150 L 750,150" /> <!-- China to Japan -->
    <path class="territory-connection" d="M 720,170 L 730,170" /> <!-- China to South Korea -->
  </g>
  
  <!-- Oceania -->
  <g id="oceania">
    <path id="australia" class="territory" d="M 780,320 L 760,350 L 780,380 L 820,390 L 850,370 L 860,340 L 830,310 L 800,300 Z" data-name="Australia" />
    <path id="new-zealand" class="territory" d="M 880,360 L 870,380 L 890,390 L 900,370 Z" data-name="New Zealand" />
    
    <text x="820" y="340" class="continent-label">OCEANIA</text>
    <text x="810" y="350" class="territory-label">Australia</text>
    <text x="885" y="375" class="territory-label">NZ</text>
    
    <!-- Internal connections -->
    <path class="territory-connection" d="M 850,370 L 870,380" /> <!-- Australia to New Zealand -->
  </g>
  
  <!-- Antarctica (optional) -->
  <g id="antarctica">
    <path id="antarctica-territory" class="territory" d="M 300,600 L 250,580 L 200,580 L 150,590 L 350,590 L 400,580 L 450,580 L 500,590 L 550,590 L 600,580 L 650,580 L 700,590 L 750,590 L 800,580 L 850,580 L 900,590 L 400,590 Z" data-name="Antarctica" />
    
    <text x="600" y="585" class="continent-label">ANTARCTICA</text>
  </g>
  
  <!-- Intercontinental connections -->
  <path class="territory-connection" d="M 40,110 L 600,120" /> <!-- Alaska to Russia -->
  <path class="territory-connection" d="M 300,80 L 390,120" /> <!-- Greenland to UK -->
  <path class="territory-connection" d="M 60,90 L 280,60" /> <!-- Alaska to Greenland (over North pole) -->
  <path class="territory-connection" d="M 190,220 L 360,200" /> <!-- Mexico to Spain -->
  <path class="territory-connection" d="M 480,380 L 780,380" /> <!-- South Africa to Australia -->
  <path class="territory-connection" d="M 750,180 L 850,340" /> <!-- Japan to Australia -->
  <path class="territory-connection" d="M 180,410 L 400,580" /> <!-- Chile to Antarctica -->
  <path class="territory-connection" d="M 450,400 L 500,580" /> <!-- South Africa to Antarctica -->
  <path class="territory-connection" d="M 800,390 L 700,580" /> <!-- Australia to Antarctica -->
</svg>