<?xml version="1.0" encoding="UTF-8" standalone="no"?>
<svg width="1200" height="700" viewBox="0 0 1200 700" xmlns="http://www.w3.org/2000/svg">
  <defs>
    <filter id="glow" x="-20%" y="-20%" width="140%" height="140%">
      <feGaussianBlur stdDeviation="5" result="blur"/>
      <feComposite in="SourceGraphic" in2="blur" operator="over"/>
    </filter>
    <filter id="shadow" x="-10%" y="-10%" width="120%" height="120%">
      <feDropShadow dx="2" dy="2" stdDeviation="2" flood-color="#000" flood-opacity="0.3"/>
    </filter>
  </defs>
  
  <style>
    .background { fill: #1a2639; }
    .continent { fill: #f0f0f0; filter: url(#shadow); }
    .grid { stroke: #2c3e50; stroke-width: 0.3; opacity: 0.2; }
    .equator { stroke: #3498db; stroke-width: 0.8; stroke-dasharray: 5,5; opacity: 0.4; }
    .marker { fill: #e74c3c; stroke: #ffffff; stroke-width: 1.5; filter: url(#glow); }
    .marker.ally { fill: #2ecc71; }
    .marker.self { fill: #3498db; }
    .marker.enemy { fill: #e74c3c; }
    .marker.neutral { fill: #95a5a6; }
    .label { fill: #ffffff; font-family: Arial, sans-serif; font-size: 12px; text-anchor: middle; }
    .country { stroke: rgba(255,255,255,0.3); stroke-width: 0.5; transition: all 0.3s ease; }
    .country:hover { filter: brightness(1.2); cursor: pointer; }
  </style>
  
  <!-- Dark background -->
  <rect class="background" width="100%" height="100%"/>
  
  <!-- Grid lines -->
  <g class="grid-lines">
    <!-- Vertical grid lines -->
    <line class="grid" x1="150" y1="0" x2="150" y2="700"/>
    <line class="grid" x1="300" y1="0" x2="300" y2="700"/>
    <line class="grid" x1="450" y1="0" x2="450" y2="700"/>
    <line class="grid" x1="600" y1="0" x2="600" y2="700"/>
    <line class="grid" x1="750" y1="0" x2="750" y2="700"/>
    <line class="grid" x1="900" y1="0" x2="900" y2="700"/>
    <line class="grid" x1="1050" y1="0" x2="1050" y2="700"/>
    
    <!-- Horizontal grid lines -->
    <line class="grid" x1="0" y1="100" x2="1200" y2="100"/>
    <line class="grid" x1="0" y1="200" x2="1200" y2="200"/>
    <line class="grid" x1="0" y1="300" x2="1200" y2="300"/>
    <line class="grid" x1="0" y1="400" x2="1200" y2="400"/>
    <line class="grid" x1="0" y1="500" x2="1200" y2="500"/>
    <line class="grid" x1="0" y1="600" x2="1200" y2="600"/>
    
    <!-- Equator -->
    <line class="equator" x1="0" y1="350" x2="1200" y2="350"/>
  </g>
  
  <!-- World Map Continents -->
  <g class="continents">
    <!-- North America -->
    <path class="continent country" id="north-america" d="M 32,50 L 60,40 L 120,40 L 200,50 L 280,80 L 310,110 L 330,150 L 290,190 L 290,230 L 240,280 L 200,310 L 180,280 L 150,250 L 120,230 L 110,180 L 90,140 L 50,120 L 30,90 L 32,50 Z"/>
    
    <!-- South America -->
    <path class="continent country" id="south-america" d="M 240,280 L 280,320 L 300,380 L 290,440 L 260,500 L 220,530 L 190,480 L 200,420 L 220,370 L 220,320 L 240,280 Z"/>
    
    <!-- Europe -->
    <path class="continent country" id="europe" d="M 490,90 L 540,80 L 580,100 L 600,130 L 580,160 L 510,180 L 480,160 L 460,130 L 490,90 Z"/>
    
    <!-- Africa -->
    <path class="continent country" id="africa" d="M 490,180 L 550,200 L 580,230 L 590,280 L 580,340 L 550,400 L 530,450 L 480,480 L 440,450 L 420,390 L 450,330 L 470,280 L 480,230 L 490,180 Z"/>
    
    <!-- Asia -->
    <path class="continent country" id="asia" d="M 600,90 L 680,70 L 760,80 L 820,110 L 880,150 L 900,200 L 890,250 L 860,300 L 830,350 L 780,360 L 730,350 L 680,330 L 650,290 L 630,240 L 590,200 L 560,150 L 580,120 L 600,90 Z"/>
    
    <!-- Australia -->
    <path class="continent country" id="australia" d="M 830,370 L 890,380 L 940,420 L 930,480 L 880,510 L 820,490 L 800,450 L 810,400 L 830,370 Z"/>
    
    <!-- Antarctica -->
    <path class="continent country" id="antarctica" d="M 550,620 L 650,610 L 750,615 L 850,610 L 750,650 L 650,655 L 550,650 L 550,620 Z"/>
    
    <!-- Greenland -->
    <path class="continent country" id="greenland" d="M 340,50 L 390,40 L 430,60 L 410,90 L 360,100 L 330,80 L 340,50 Z"/>
    
    <!-- United Kingdom -->
    <path class="continent country" id="uk" d="M 460,130 L 470,120 L 480,130 L 470,140 L 460,130 Z"/>
    
    <!-- Japan -->
    <path class="continent country" id="japan" d="M 900,180 L 910,160 L 920,180 L 910,200 L 900,180 Z"/>
    
    <!-- Italy -->
    <path class="continent country" id="italy" d="M 510,180 L 520,170 L 525,180 L 520,190 L 510,180 Z"/>
    
    <!-- Individual Countries (simplified shapes) -->
    <path class="continent country" id="usa" d="M 150,140 L 200,130 L 240,150 L 230,180 L 180,190 L 150,170 L 150,140 Z"/>
    <path class="continent country" id="canada" d="M 150,90 L 220,80 L 260,100 L 240,130 L 190,120 L 160,100 L 150,90 Z"/>
    <path class="continent country" id="mexico" d="M 150,190 L 190,180 L 210,200 L 180,230 L 160,220 L 150,190 Z"/>
    <path class="continent country" id="brazil" d="M 240,320 L 270,310 L 280,340 L 260,380 L 230,370 L 230,340 L 240,320 Z"/>
    <path class="continent country" id="argentina" d="M 230,380 L 260,380 L 270,410 L 240,450 L 220,430 L 230,380 Z"/>
    <path class="continent country" id="russia" d="M 600,90 L 680,70 L 740,80 L 700,130 L 640,140 L 600,120 L 600,90 Z"/>
    <path class="continent country" id="china" d="M 770,180 L 830,170 L 860,210 L 820,240 L 760,230 L 770,180 Z"/>
    <path class="continent country" id="india" d="M 700,230 L 730,220 L 760,240 L 740,270 L 690,260 L 700,230 Z"/>
    
    <!-- Country labels for key nations -->
    <text class="label" x="190" y="160">USA</text>
    <text class="label" x="190" y="100">Canada</text>
    <text class="label" x="180" y="210">Mexico</text>
    <text class="label" x="250" y="340">Brazil</text>
    <text class="label" x="245" y="420">Argentina</text>
    <text class="label" x="470" y="135">UK</text>
    <text class="label" x="520" y="180">Italy</text>
    <text class="label" x="650" y="110">Russia</text>
    <text class="label" x="800" y="200">China</text>
    <text class="label" x="720" y="250">India</text>
    <text class="label" x="910" y="180">Japan</text>
    <text class="label" x="860" y="440">Australia</text>
  </g>
  
  <!-- Nation markers (will be dynamically generated for current user's relations) -->
  <g class="markers">
    <!-- Francis (Australia) marker -->
    <circle class="marker self" id="marker-australia" cx="860" cy="440" r="8"/>
    
    <!-- Italy marker -->
    <circle class="marker ally" id="marker-italy" cx="520" cy="180" r="8"/>
  </g>
  
  <!-- Map title and compass -->
  <g class="map-decorations">
    <!-- Title -->
    <text class="label" x="600" y="30" style="font-size: 20px; font-weight: bold;">EcoWorld Geopolitical Map</text>
    
    <!-- Compass -->
    <g transform="translate(1100, 600)">
      <circle cx="0" cy="0" r="30" fill="none" stroke="#ffffff" stroke-width="1"/>
      <line x1="0" y1="-25" x2="0" y2="25" stroke="#ffffff" stroke-width="1"/>
      <line x1="-25" y1="0" x2="25" y2="0" stroke="#ffffff" stroke-width="1"/>
      <text class="label" x="0" y="-35">N</text>
      <text class="label" x="0" y="45">S</text>
      <text class="label" x="-35" y="5">W</text>
      <text class="label" x="35" y="5">E</text>
    </g>
  </g>
  
  <!-- Add subtle ocean texture -->
  <rect width="100%" height="100%" fill="url(#ocean-texture)" opacity="0.05"/>
</svg>